#N canvas 1 49 681 699 10;
#X floatatom 426 148 5 0 0 0 - - -;
#X floatatom 329 145 5 0 0 0 - - -;
#X obj 279 65 notein;
#X obj 248 307 ctlout;
#X msg 269 237 43;
#X obj 414 328 noteout;
#X obj 328 270 makenote;
#X floatatom 378 234 5 0 0 0 - - -;
#X floatatom 229 99 5 0 0 0 - - -;
#X obj 95 96 ctlin;
#X floatatom 59 167 5 0 0 0 - - -;
#X floatatom 104 168 5 0 0 0 - - -;
#X floatatom 156 173 5 0 0 0 - - -;
#X obj 92 262 ctlout;
#X connect 0 0 5 2;
#X connect 0 0 3 2;
#X connect 1 0 6 1;
#X connect 2 0 8 0;
#X connect 2 1 1 0;
#X connect 2 2 0 0;
#X connect 4 0 3 1;
#X connect 6 0 5 0;
#X connect 6 1 5 1;
#X connect 7 0 6 2;
#X connect 8 0 6 0;
#X connect 8 0 3 0;
#X connect 9 0 10 0;
#X connect 9 1 11 0;
#X connect 9 2 12 0;
#X connect 10 0 13 0;
#X connect 11 0 13 1;
#X connect 12 0 13 2;
